<?xml version="1.0" encoding="UTF-8" standalone="no"?>
<svg
   xmlns:dc="http://purl.org/dc/elements/1.1/"
   xmlns:cc="http://creativecommons.org/ns#"
   xmlns:rdf="http://www.w3.org/1999/02/22-rdf-syntax-ns#"
   xmlns:svg="http://www.w3.org/2000/svg"
   xmlns="http://www.w3.org/2000/svg"
   viewBox="0 0 1400.1067 535.20001"
   height="535.20001"
   width="1400.1067"
   xml:space="preserve"
   id="svg48"
   version="1.1"><metadata
     id="metadata54"><rdf:RDF><cc:Work
         rdf:about=""><dc:format>image/svg+xml</dc:format><dc:type
           rdf:resource="http://purl.org/dc/dcmitype/StillImage" /><dc:title></dc:title></cc:Work></rdf:RDF></metadata><defs
     id="defs52"><clipPath
       id="clipPath66"
       clipPathUnits="userSpaceOnUse"><path
         id="path64"
         d="m 3992.25,2432.48 c -284.04,25.43 -455.37,175.67 -817.58,291 -715.98,228 -1608.58,104.09 -2161.76,-443.43 C 746.438,2016.22 553.824,1639.59 601.223,1254.59 631.563,1005.58 767.75,765.699 889.695,566.828 857.688,588.32 731.672,743.332 621.582,922.039 253.051,1520.22 464.855,2238.48 971.344,2708.4 c 548.476,508.28 1381.476,666.12 2099.166,547.24 314.13,-50.46 660.13,-153.12 949.46,-290.88 133.4,-63.51 252.77,-123.47 274.23,-269.02 26.46,-180.09 -150.94,-276.76 -301.95,-263.26 z" /></clipPath><linearGradient
       id="linearGradient74"
       spreadMethod="pad"
       gradientTransform="matrix(3861.2,0,0,-3861.2,435.64,1930.04)"
       gradientUnits="userSpaceOnUse"
       y2="0"
       x2="1"
       y1="0"
       x1="0"><stop
         id="stop68"
         offset="0"
         style="stop-opacity:1;stop-color:#1f2b54" /><stop
         id="stop70"
         offset="0.400227"
         style="stop-opacity:1;stop-color:#3c75c3" /><stop
         id="stop72"
         offset="1"
         style="stop-opacity:1;stop-color:#4868bb" /></linearGradient><clipPath
       id="clipPath84"
       clipPathUnits="userSpaceOnUse"><path
         id="path82"
         d="m 4606.8,2975.41 c -187.07,22.92 -374.12,116.91 -554.29,194.55 -156.94,67.67 -342.86,136.74 -554.3,196.12 C 2636.98,3607.82 1859.72,3485.66 1170.18,3067.14 608.109,2723.48 210.27,2076.21 344.961,1407.04 410.52,1080.57 583.297,855.082 766.637,600.262 c 0.277,-0.274 0.418,-0.551 0.699,-1 6.664,-10.211 51.773,-43.723 58.719,-53.703 -34.805,27.722 -107.215,81.16 -140.895,113.191 -62.355,60.27 -133.637,139.941 -188.48,209.582 -76.719,97.41 -133.782,183.248 -164.164,237.888 -181.664,326.67 -223.422,635.21 -194.551,954.61 10.496,116.13 12.34,154.15 54.965,315 15.875,59.9 30.316,123.68 87.656,275.91 97.148,241.53 208.266,397.37 446.144,623.7 701.67,667.52 1811.03,839.06 2757.64,687.05 399.78,-64.15 750.61,-151.22 1164.01,-358.89 142.53,-71.63 324.27,-160.37 341.32,-339.65 21.29,-224.04 -204.9,-310.34 -382.9,-288.54 z" /></clipPath><linearGradient
       id="linearGradient94"
       spreadMethod="pad"
       gradientTransform="matrix(4448.47,2568.32,2568.32,-4448.47,79.1504,1544.85)"
       gradientUnits="userSpaceOnUse"
       y2="0"
       x2="1"
       y1="0"
       x1="0"><stop
         id="stop86"
         offset="0"
         style="stop-opacity:1;stop-color:#862b1a" /><stop
         id="stop88"
         offset="0.224869"
         style="stop-opacity:1;stop-color:#ee7916" /><stop
         id="stop90"
         offset="0.519878"
         style="stop-opacity:1;stop-color:#ee8e13" /><stop
         id="stop92"
         offset="1"
         style="stop-opacity:1;stop-color:#ee2223" /></linearGradient><clipPath
       id="clipPath104"
       clipPathUnits="userSpaceOnUse"><path
         id="path102"
         d="M 4452.21,1781.2 C 4228.82,1382.37 4039.38,1126.73 3657.58,762.66 3026.1,160.5 2167.07,-105.961 1405.21,38.5 -65.6133,317.332 -355.82,1974.57 412.859,2925.24 c 18.774,23.21 86.344,110.37 106.371,132.37 C 411.156,2938.84 290.43,2724.58 210.152,2429.3 60.9414,1880.5 67.5156,1102.91 844.527,569.082 1753.7,-40.6406 3004.28,608.242 3561.82,1423.21 c 197.51,288.68 240.18,402.95 489.6,864.76 94.09,174.21 347.72,204.26 472.7,47.24 133.17,-167.38 16.91,-395.64 -71.91,-554.01 z" /></clipPath><linearGradient
       id="linearGradient116"
       spreadMethod="pad"
       gradientTransform="matrix(4584.42,0,0,-4584.42,0,1528.8)"
       gradientUnits="userSpaceOnUse"
       y2="0"
       x2="1"
       y1="0"
       x1="0"><stop
         id="stop106"
         offset="0"
         style="stop-opacity:1;stop-color:#d6de13" /><stop
         id="stop108"
         offset="0.0137585"
         style="stop-opacity:1;stop-color:#d6de13" /><stop
         id="stop110"
         offset="0.233817"
         style="stop-opacity:1;stop-color:#b0d017" /><stop
         id="stop112"
         offset="0.709841"
         style="stop-opacity:1;stop-color:#e7d913" /><stop
         id="stop114"
         offset="1"
         style="stop-opacity:1;stop-color:#4abc39" /></linearGradient></defs><g
     transform="matrix(1.3333333,0,0,-1.3333333,0,535.2)"
     id="g56"><g
       transform="scale(0.1)"
       id="g58"><g
         id="g60"><g
           clip-path="url(#clipPath66)"
           id="g62"><path
             id="path76"
             style="fill:url(#linearGradient74);fill-opacity:1;fill-rule:nonzero;stroke:none"
             d="m 3992.25,2432.48 c -284.04,25.43 -455.37,175.67 -817.58,291 -715.98,228 -1608.58,104.09 -2161.76,-443.43 C 746.438,2016.22 553.824,1639.59 601.223,1254.59 631.563,1005.58 767.75,765.699 889.695,566.828 857.688,588.32 731.672,743.332 621.582,922.039 253.051,1520.22 464.855,2238.48 971.344,2708.4 c 548.476,508.28 1381.476,666.12 2099.166,547.24 314.13,-50.46 660.13,-153.12 949.46,-290.88 133.4,-63.51 252.77,-123.47 274.23,-269.02 26.46,-180.09 -150.94,-276.76 -301.95,-263.26" /></g></g><g
         id="g78"><g
           clip-path="url(#clipPath84)"
           id="g80"><path
             id="path96"
             style="fill:url(#linearGradient94);fill-opacity:1;fill-rule:nonzero;stroke:none"
             d="m 4606.8,2975.41 c -187.07,22.92 -374.12,116.91 -554.29,194.55 -156.94,67.67 -342.86,136.74 -554.3,196.12 C 2636.98,3607.82 1859.72,3485.66 1170.18,3067.14 608.109,2723.48 210.27,2076.21 344.961,1407.04 410.52,1080.57 583.297,855.082 766.637,600.262 c 0.277,-0.274 0.418,-0.551 0.699,-1 6.664,-10.211 51.773,-43.723 58.719,-53.703 -34.805,27.722 -107.215,81.16 -140.895,113.191 -62.355,60.27 -133.637,139.941 -188.48,209.582 -76.719,97.41 -133.782,183.248 -164.164,237.888 -181.664,326.67 -223.422,635.21 -194.551,954.61 10.496,116.13 12.34,154.15 54.965,315 15.875,59.9 30.316,123.68 87.656,275.91 97.148,241.53 208.266,397.37 446.144,623.7 701.67,667.52 1811.03,839.06 2757.64,687.05 399.78,-64.15 750.61,-151.22 1164.01,-358.89 142.53,-71.63 324.27,-160.37 341.32,-339.65 21.29,-224.04 -204.9,-310.34 -382.9,-288.54" /></g></g><g
         id="g98"><g
           clip-path="url(#clipPath104)"
           id="g100"><path
             id="path118"
             style="fill:url(#linearGradient116);fill-opacity:1;fill-rule:nonzero;stroke:none"
             d="M 4452.21,1781.2 C 4228.82,1382.37 4039.38,1126.73 3657.58,762.66 3026.1,160.5 2167.07,-105.961 1405.21,38.5 -65.6133,317.332 -355.82,1974.57 412.859,2925.24 c 18.774,23.21 86.344,110.37 106.371,132.37 C 411.156,2938.84 290.43,2724.58 210.152,2429.3 60.9414,1880.5 67.5156,1102.91 844.527,569.082 1753.7,-40.6406 3004.28,608.242 3561.82,1423.21 c 197.51,288.68 240.18,402.95 489.6,864.76 94.09,174.21 347.72,204.26 472.7,47.24 133.17,-167.38 16.91,-395.64 -71.91,-554.01" /></g></g><path
         id="path120"
         style="fill:#171e3b;fill-opacity:1;fill-rule:nonzero;stroke:none"
         d="m 4729.28,1379.5 v 209.14 h 538.22 c 86.6,0 151.92,16.85 195.96,50.61 44.06,33.76 66.03,83.29 66.03,148.62 0,51.35 -16.88,95.56 -50.65,132.6 -33.75,37.07 -97.94,79.84 -192.61,128.24 l -264.16,135.4 c -96.86,48.44 -168.79,104.92 -215.76,169.52 -46.96,64.56 -70.43,137.93 -70.43,220.15 0,116.67 42.93,209.49 128.78,278.47 85.86,68.96 203.64,103.47 353.32,103.47 h 455.71 v -208.04 h -525.05 c -58.71,0 -106.21,-15.25 -142.54,-45.71 -36.32,-30.48 -54.48,-70.68 -54.48,-120.6 0,-44.79 15.03,-83.71 45.09,-116.75 30.06,-33.05 105.25,-80.78 225.54,-143.18 l 230.05,-116.67 c 99.85,-50.64 173.99,-109.12 222.44,-175.51 48.48,-66.4 72.71,-143.25 72.71,-230.52 0,-131.33 -45.53,-234.03 -136.52,-308.12 -90.99,-74.08 -219.05,-111.12 -384.14,-111.12 h -497.51" /><path
         id="path122"
         style="fill:#171e3b;fill-opacity:1;fill-rule:nonzero;stroke:none"
         d="m 5826.83,1379.5 v 402.53 c 0,94.2 24.85,168.86 74.56,224 49.7,55.14 116.65,82.71 200.92,82.71 42.59,0 82.1,-8.98 118.55,-26.99 36.45,-17.99 68.14,-44.71 95.14,-80.22 26.49,35.03 57.98,61.66 94.44,79.87 36.44,18.21 76.18,27.34 119.26,27.34 82.35,0 148.73,-27.69 199.15,-83.06 50.4,-55.37 75.58,-129.93 75.58,-223.65 V 1379.5 h -123.5 v 425.97 c 0,48.75 -14,88.05 -41.91,117.85 -27.91,29.82 -64.36,44.73 -109.32,44.73 -44.48,0 -80.83,-15.03 -108.97,-45.07 -28.18,-30.06 -42.26,-69.23 -42.26,-117.51 V 1379.5 h -123.53 v 425.97 c 0,47.8 -14.18,86.85 -42.62,117.14 -28.37,30.31 -65.07,45.44 -110.01,45.44 -44.98,0 -81.4,-15.03 -109.34,-45.07 -27.94,-30.06 -41.88,-69.23 -41.88,-117.51 V 1379.5 h -124.26" /><path
         id="path124"
         style="fill:#171e3b;fill-opacity:1;fill-rule:nonzero;stroke:none"
         d="m 7457.93,1379.5 v 347.16 c 0,72.42 -20.6,131.35 -61.76,176.78 -41.18,45.43 -94.67,68.17 -160.45,68.17 -65.33,0 -118.93,-22.37 -160.83,-67.11 -41.87,-44.71 -62.81,-102.36 -62.81,-172.86 0,-71.96 21.53,-130.88 64.61,-176.78 43.05,-45.91 97.95,-68.89 164.7,-68.89 30.27,0 59.75,5.11 88.39,15.27 28.64,10.19 57.38,26.4 86.27,48.65 v -134.18 c -28.41,-15.64 -58.46,-27.68 -90.17,-36.21 -17.03,-3.79 -33.14,-6.63 -48.26,-8.53 -15.17,-1.9 -31.98,-2.82 -50.43,-2.82 -32.2,0 -64.73,4.95 -97.62,14.9 -32.9,9.94 -62.84,24.37 -89.79,43.29 -50.19,34.57 -88.51,77.77 -115.04,129.57 -26.5,51.84 -39.75,109.46 -39.75,172.89 0,104.12 32.76,190.14 98.32,258.07 65.56,67.92 149.22,101.87 250.97,101.87 34.09,0 66.03,-4.02 95.86,-12.06 29.81,-8.05 58.92,-20.83 87.3,-38.34 55.39,-33.14 98,-79.28 127.82,-138.45 6.14,-12.3 11.73,-25.8 16.69,-40.47 4.94,-14.68 9.1,-30.28 12.43,-46.87 6.14,-34.05 9.2,-80.91 9.2,-140.55 v -292.5 h -125.65" /><path
         id="path126"
         style="fill:#171e3b;fill-opacity:1;fill-rule:nonzero;stroke:none"
         d="m 7701.04,1379.5 v 696.48 h 115.04 v -102.97 c 21.27,40.24 50.52,69.59 87.67,88.04 37.15,18.49 87.7,27.69 151.57,27.69 H 8088 v -120.69 h -19.19 c -85.2,0 -146.93,-20.34 -185.28,-61.06 -38.33,-40.7 -57.51,-106.96 -57.51,-198.78 V 1379.5 h -124.98" /><path
         id="path128"
         style="fill:#171e3b;fill-opacity:1;fill-rule:nonzero;stroke:none"
         d="m 8185.82,2260.53 h 124.92 v -184.55 h 210.89 V 1958.1 h -210.89 v -298.17 c 0,-54.9 13.52,-95.49 40.47,-121.76 26.98,-26.26 70.53,-39.39 130.65,-39.39 h 39.77 V 1379.5 h -41.18 c -98.47,0 -172.18,21.51 -221.17,64.6 -48.97,43.06 -73.46,107.93 -73.46,194.53 v 621.9" /><path
         id="path130"
         style="fill:#171e3b;fill-opacity:1;fill-rule:nonzero;stroke:none"
         d="M 4695.47,520.629 V 2096.85 h 209.14 V 520.629 h -209.14" /><path
         id="path132"
         style="fill:#171e3b;fill-opacity:1;fill-rule:nonzero;stroke:none"
         d="m 5009.17,520.629 v 379.84 c 0,100.821 26.98,180.921 80.93,240.321 53.96,59.39 125.92,89.11 215.83,89.11 89.94,0 161.65,-29.6 215.14,-88.75 53.46,-59.17 80.24,-139.41 80.24,-240.681 v -379.84 h -123.57 v 402.543 c 0,55.398 -15.96,100.218 -47.91,134.538 -31.97,34.3 -73.25,51.49 -123.9,51.49 -49.68,0 -90.86,-17.28 -123.54,-51.82 -32.64,-34.57 -48.96,-79.31 -48.96,-134.208 V 520.629 h -124.26" /><path
         id="path134"
         style="fill:#171e3b;fill-opacity:1;fill-rule:nonzero;stroke:none"
         d="m 5688.92,639.91 h 299.96 c 29.7,0 53.28,5.922 70.76,17.762 17.42,11.808 26.16,28.148 26.16,49 0,17.019 -6.41,31.687 -19.18,43.988 -12.76,12.309 -37.38,26.262 -73.85,41.879 l -119.26,48.301 c -70.06,28.851 -118.32,57.742 -144.81,86.609 -13.27,15.133 -23.21,31.942 -29.84,50.403 -6.61,18.449 -9.94,39.528 -9.94,63.188 0,56.81 20.11,100.34 60.34,130.64 40.22,30.27 97.99,45.44 173.26,45.44 h 257.7 v -116.44 h -291.09 c -23.67,0 -42.12,-5.21 -55.37,-15.64 -13.27,-10.42 -19.87,-25.07 -19.87,-44 0,-14.2 5.91,-27.1 17.74,-38.69 11.84,-11.608 31.47,-22.83 58.92,-33.721 l 125.67,-51.109 c 78.56,-32.211 131.34,-63.309 158.35,-93.348 26.94,-30.082 40.45,-67.84 40.45,-113.274 0,-63.867 -23.85,-111.578 -71.54,-143.058 -47.66,-31.481 -121.06,-47.211 -220.2,-47.211 H 5688.92 V 639.91" /><path
         id="path136"
         style="fill:#171e3b;fill-opacity:1;fill-rule:nonzero;stroke:none"
         d="m 6280.09,211.789 v 601.633 c 0,58.199 2.84,103.699 8.52,136.558 5.67,32.899 15.62,63.29 29.82,91.21 28.38,59.1 70.52,105.34 126.38,138.67 55.82,33.37 117.85,50.04 185.99,50.04 100.35,0 183.64,-34.1 249.92,-102.23 66.25,-68.18 99.39,-154.068 99.39,-257.729 0,-47.812 -8.03,-93.019 -24.13,-135.613 -16.11,-42.609 -39.77,-81.027 -71.01,-115.359 -31.24,-34.321 -68.62,-61.41 -112.16,-81.297 -22.74,-9.461 -44.99,-16.57 -66.76,-21.281 -21.76,-4.731 -44.97,-7.102 -69.55,-7.102 -34.57,0 -67.58,3.891 -99.06,11.691 -31.48,7.809 -61.4,19.77 -89.8,35.86 v 134.18 c 27.45,-20.821 56.33,-36.899 86.61,-48.282 13.72,-4.726 28.41,-8.519 44.02,-11.34 15.63,-2.839 30.75,-4.269 45.44,-4.269 66.75,0 121.63,22.973 164.71,68.883 43.06,45.886 64.6,104.828 64.6,176.758 0,70.062 -21.06,127.57 -63.19,172.55 -42.12,44.95 -96.09,67.42 -161.87,67.42 -64.83,0 -118.09,-22.58 -159.73,-67.73 C 6426.57,999.84 6405.76,940.859 6405.76,868 V 211.789 h -125.67" /><path
         id="path138"
         style="fill:#171e3b;fill-opacity:1;fill-rule:nonzero;stroke:none"
         d="m 7749.16,828.789 c -17.01,-99.168 -57.15,-177.57 -120.34,-235.199 -63.18,-57.641 -139.99,-86.449 -230.36,-86.449 -30.32,0 -60.36,4.039 -90.18,12.07 -29.82,8.019 -58.45,20.34 -85.9,36.879 -55.87,34.531 -99.17,79.058 -129.93,133.711 -30.78,54.597 -46.13,114.769 -46.13,180.5 0,48.219 8.85,94.078 26.63,137.599 17.7,43.48 43.4,82.6 77.01,117.37 33.6,34.77 71.81,61.12 114.65,79.08 42.83,17.98 87.9,26.94 135.27,26.94 70.02,0 132.75,-18.44 188.13,-55.36 55.37,-36.9 100.83,-91.12 136.31,-162.58 l -456.53,-252.741 -52.42,94.282 338.51,189.059 c -19.87,21.75 -43.19,38.89 -69.92,51.42 -26.75,12.53 -55.27,18.8 -85.53,18.8 -62,0 -114.53,-23.29 -157.6,-69.83 -43.07,-46.559 -64.61,-104.09 -64.61,-172.61 0,-68.558 21.42,-126.082 64.25,-172.621 42.83,-46.57 95.49,-69.859 157.98,-69.859 58.66,0 108.01,19.34 148,58.039 39.99,38.691 65.19,92.223 75.6,160.66 l 127.11,-19.16" /><path
         id="path140"
         style="fill:#171e3b;fill-opacity:1;fill-rule:nonzero;stroke:none"
         d="m 8285.35,1097.85 h -53.97 c -87.56,0 -157.36,-20.83 -209.43,-62.48 -52.06,-41.64 -78.09,-97.518 -78.09,-167.561 0,-69.118 26.26,-124.598 78.81,-166.489 52.53,-41.89 122.12,-62.82 208.71,-62.82 h 53.97 V 520.629 h -62.48 c -124.94,0 -224.33,31.832 -298.19,95.5 -73.83,63.641 -110.73,148.262 -110.73,253.812 0,57.27 13.12,110.289 39.37,159.019 26.29,48.75 64.01,90.18 113.26,124.27 34.08,22.7 70.3,39.02 108.62,48.96 38.34,9.96 87.56,14.93 147.67,14.93 h 62.48 v -119.27" /><path
         id="path142"
         style="fill:#171e3b;fill-opacity:1;fill-rule:nonzero;stroke:none"
         d="M 8406.04,1319.99 H 8531 v -102.87 h 210.86 V 1099.25 H 8531 V 801.082 c 0,-54.91 13.48,-95.504 40.46,-121.762 26.99,-26.281 70.54,-39.41 130.65,-39.41 h 39.75 V 520.629 h -41.2 c -98.42,0 -172.13,21.531 -221.15,64.621 -48.97,43.051 -73.47,107.91 -73.47,194.539 v 540.201" /><path
         id="path144"
         style="fill:#171e3b;fill-opacity:1;fill-rule:nonzero;stroke:none"
         d="m 8892.93,520.629 v 696.491 h 124.94 V 520.629 Z m -13.52,812.841 c 0,20.82 7.35,38.56 22.04,53.24 14.65,14.65 32.63,22.02 53.95,22.02 21.3,0 39.15,-7.37 53.59,-22.02 14.46,-14.68 21.66,-32.42 21.66,-53.24 0,-21.77 -7.33,-40.1 -22,-55.02 -14.69,-14.93 -32.44,-22.36 -53.25,-22.36 -20.83,0 -38.7,7.67 -53.62,23.08 -14.9,15.37 -22.37,33.45 -22.37,54.3" /><path
         id="path146"
         style="fill:#171e3b;fill-opacity:1;fill-rule:nonzero;stroke:none"
         d="m 9256.57,871.012 c 0,-67.77 21.62,-125.25 64.95,-172.43 43.34,-47.16 95.75,-70.73 157.28,-70.73 60.56,0 112.74,23.57 156.53,70.73 43.78,47.18 65.69,104.66 65.69,172.43 0,66.808 -21.45,123.808 -64.25,170.988 -42.83,47.17 -95.5,70.74 -157.97,70.74 -61.09,0 -113.37,-23.57 -156.91,-70.74 -43.55,-47.18 -65.32,-104.18 -65.32,-170.988 z m -129.93,-1.43 c 0,48.809 8.99,94.867 26.97,138.208 18,43.37 43.79,82.22 77.4,116.58 33.59,34.33 71.6,60.52 113.96,78.51 42.34,18 86.95,27.02 133.83,27.02 47.78,0 92.86,-8.79 135.24,-26.31 42.35,-17.52 80.23,-43.47 113.59,-77.81 33.38,-34.35 58.92,-73.68 76.67,-117.99 17.76,-44.278 26.64,-90.349 26.64,-138.208 0,-50.242 -8.79,-97.242 -26.27,-141.062 -17.52,-43.829 -42.85,-82.68 -75.98,-116.559 -33.12,-33.871 -71.59,-59.801 -115.36,-77.801 -43.8,-18.012 -88.64,-27.019 -134.53,-27.019 -47.35,0 -92.07,8.879 -134.21,26.648 -42.13,17.77 -79.85,43.59 -113.23,77.473 -33.36,33.879 -59.18,73.218 -77.39,117.968 -18.22,44.77 -27.33,91.559 -27.33,140.352" /><path
         id="path148"
         style="fill:#171e3b;fill-opacity:1;fill-rule:nonzero;stroke:none"
         d="m 9908.64,520.629 v 379.84 c 0,100.821 26.99,180.921 80.96,240.321 53.9,59.39 125.9,89.11 215.8,89.11 89.9,0 161.7,-29.6 215.1,-88.75 53.5,-59.17 80.3,-139.41 80.3,-240.681 v -379.84 h -123.6 v 402.543 c 0,55.398 -15.9,100.218 -47.9,134.538 -32,34.3 -73.2,51.49 -123.9,51.49 -49.7,0 -90.9,-17.28 -123.5,-51.82 -32.7,-34.57 -49,-79.31 -49,-134.208 V 520.629 h -124.26" /></g></g></svg>